Coordinates
version=1
nRows=21
nColumns=33
inDegrees=yes

Units are S.I. units (second, meters, Newtons, ...)
Angles are in degrees.

endheader
time	ground_thorax_rot_x	ground_thorax_rot_y	ground_thorax_rot_z	ground_thorax_tx	ground_thorax_ty	ground_thorax_tz	clav_prot_r	clav_elev_r	scapula_abduction_r	scapula_elevation_r	scapula_upward_rot_r	scapula_winging_r	shoulder_elv_r	plane_of_elev_r	axial_rot_r	elbow_flexion_r	pro_sup_r	wrist_flex_r	wrist_dev_r	clav_prot_l	clav_elev_l	scapula_abduction_l	scapula_elevation_l	scapula_upward_rot_l	scapula_winging_l	shoulder_elv_l	plane_of_elev_l	axial_rot_l	elbow_flexion_l	pro_sup_l	wrist_flex_l	wrist_dev_l
      9.57000000	    -40.73516159	     -1.99061006	      0.38120779	    -76.94898464	    865.57131947	     -5.81803350	      5.43526966	    -45.00000000	     45.00000000	    -45.00000000	     -5.40224669	   2425.57922447	    429.11999129	     30.89328262	     74.88142120	   1458.93081935	     80.15229537	     17.70626360	      3.84264553	     16.02825172	     43.71680019	    -45.00000000	    -45.00000000	    -26.74239911	    803.75524761	  -2978.14551658	    137.01283064	    172.91306280	      9.46604322	      8.75663986	     12.40009358	    -21.25253477
      9.58000000	    -40.70056180	     -2.22594244	      0.57543445	    -72.28833291	    861.50259093	     -5.61508820	      5.51829812	    -45.00000000	     45.00000000	    -45.00000000	     -5.73552910	   2426.07435215	    428.75266338	     30.91176843	     74.30566110	   1458.82472289	     78.61391752	     17.92799926	      4.07129678	     15.88846622	     43.70435944	    -45.00000000	    -45.00000000	    -26.84958434	    803.50517208	  -2978.48202177	    136.67434875	    173.25310799	      9.35449186	      7.97433032	     12.48167848	    -21.05182387
      9.59000000	    -40.67270750	     -1.83511304	      0.27650720	    -67.62737224	    857.29945694	     -5.39710376	      4.99861393	    -45.00000000	     45.00000000	    -45.00000000	     -4.84242087	   2426.37427593	    428.04752730	     30.83265700	     73.70544101	   1458.35018229	     76.25953208	     17.96125457	      4.38391934	     16.14680502	     43.94664082	    -45.00000000	    -45.00000000	    -26.18265084	    802.57619042	  -2978.69575499	    136.80011639	    174.13679817	      9.15246561	      7.39552075	     12.96798870	    -20.79486191
      9.60000000	    -40.64533130	     -1.88287946	      0.34426365	    -62.97710300	    852.99803137	     -5.15953109	      4.91004280	    -45.00000000	     45.00000000	    -45.00000000	     -4.88355951	   2426.87938145	    427.58587319	     30.76247343	     72.77278451	   1457.99766428	     73.52395911	     18.20483661	      4.75978380	     16.25640278	     44.06620586	    -45.00000000	    -45.00000000	    -26.10815180	    801.99116968	  -2979.01675060	    136.70688232	    174.68099355	      8.98700750	      7.16174558	     13.07268254	    -20.59655128
      9.61000000	    -40.59337613	     -2.34991180	      0.79392471	    -58.35369578	    848.64247514	     -4.89717118	      5.42910705	    -45.00000000	     45.00000000	    -45.00000000	     -6.09663300	   2427.44061023	    427.27773608	     30.99745897	     72.02779039	   1457.67416422	     71.10655224	     18.46998667	      5.15289725	     16.01223202	     43.86527099	    -45.00000000	    -45.00000000	    -27.10394834	    801.90424627	  -2979.12899761	    135.94623936	    174.97758860	      8.86555524	      7.08230616	     13.12968369	    -20.43784035
      9.62000000	    -40.56916307	     -2.17319862	      0.63917424	    -53.77790572	    844.28254637	     -4.60432715	      5.14016515	    -45.00000000	     45.00000000	    -45.00000000	     -5.63663630	   2428.00549713	    426.82567504	     30.78251857	     70.99258259	   1457.24281687	     67.95133443	     18.75273083	      5.65473297	     16.48321555	     44.10974181	    -45.00000000	    -45.00000000	    -26.90865969	    801.14886420	  -2979.36125689	    135.85463558	    176.09005594	      8.62628871	      6.99992892	     13.25981044	    -20.23898082
      9.63000000	    -40.56451960	     -1.73765120	      0.28776481	    -49.26949038	    839.97306863	     -4.27614530	      4.43133827	    -45.00000000	     45.00000000	    -45.00000000	     -4.73239660	   2428.36649688	    426.09143399	     30.55698713	     70.42502324	   1456.53083541	     63.33332856	     18.74233615	      6.20103531	     16.78695645	     44.37522133	    -45.00000000	    -45.00000000	    -26.08272652	    800.10879996	  -2979.66202810	    136.12470735	    177.32823686	      8.40543921	      7.08267729	     13.68155071	    -20.01556701
      9.64000000	    -40.46464489	     -2.16142027	      0.71019439	    -44.85370241	    835.77447224	     -3.90953760	      4.83625598	    -45.00000000	     45.00000000	    -45.00000000	     -5.57062465	   2428.98870760	    425.89158432	     30.59177821	     69.84284937	   1455.98327399	     59.42958545	     19.01698241	      6.81881570	     16.83839240	     44.36282744	    -45.00000000	    -45.00000000	    -26.92642846	    799.81274639	  -2979.89208113	    135.57453991	    177.58912260	      8.17392219	      7.25105187	     13.50832715	    -19.85280340
      9.65000000	    -40.41258855	     -1.66390316	      0.26828810	    -40.55982059	    831.74473215	     -3.50543621	      4.08827642	    -45.00000000	     45.00000000	    -45.00000000	     -4.74942898	   2429.26908510	    425.15539471	     30.48986376	     69.29097637	   1455.12238917	     53.59915501	     18.82981104	      7.44960448	     16.69362681	     44.41326850	    -45.00000000	    -44.66648574	    -25.60795864	    799.04173942	  -2980.12466793	    135.90078658	    178.51536146	      7.89995808	      7.58338534	     14.11812530	    -19.61709439
      9.66000000	    -40.18093985	     -1.78162903	      0.32860488	    -36.41237811	    827.94020682	     -3.06696892	      4.03823592	    -45.00000000	     45.00000000	    -45.00000000	     -4.73825297	   2429.84004769	    424.91881633	     30.32201721	     68.96450698	   1454.36508392	     48.10229224	     18.87264060	      8.18135100	     16.58334187	     44.12794843	    -45.00000000	    -44.03435862	    -25.04923190	    798.85312667	  -2980.42727862	    135.94697668	    178.45298252	      7.68283926	      8.03784218	     14.13852482	    -19.46758426
      9.67000000	    -39.97710468	     -1.96730275	      0.45455140	    -32.44276479	    824.41335698	     -2.60192217	      4.18442557	    -45.00000000	     45.00000000	    -45.00000000	     -4.91822742	   2430.49033932	    424.72242658	     30.13035131	     68.74176109	   1453.64576168	     43.29138510	     18.91133174	      8.95055090	     16.60093192	     43.79778697	    -45.00000000	    -43.45407136	    -24.73363665	    798.76646709	  -2980.66959408	    135.83249062	    178.31203362	      7.44781418	      8.47218489	     14.00099109	    -19.33113094
      9.68000000	    -39.81289255	     -2.44933741	      0.98031100	    -28.67115720	    821.19779750	     -2.11950706	      4.63359978	    -45.00000000	     45.00000000	    -45.00000000	     -5.97077566	   2430.77488195	    424.42319226	     30.31013414	     68.95012115	   1453.12576101	     39.58028491	     18.74241046	      9.37989964	     16.02796484	     43.03646193	    -45.00000000	    -42.96735458	    -25.20827589	    798.93777977	  -2980.79307476	    135.29304124	    177.69539959	      7.17747089	      8.96367374	     14.03958428	    -19.14714785
      9.69000000	    -39.56632043	     -1.85328223	      0.24731947	    -25.12038481	    818.31574268	     -1.63059686	      3.70202676	    -45.00000000	     45.00000000	    -45.00000000	     -4.53218089	   2431.22328482	    423.98666512	     29.99544237	     69.16370662	   1452.23870227	     34.07996159	     18.34515930	      9.95062888	     15.88199050	     43.21880984	    -45.00000000	    -42.18638957	    -23.10403754	    798.40723129	  -2981.13582122	    136.00901808	    178.06504783	      6.96910980	      9.60464414	     14.34308648	    -18.97900535
      9.70000000	    -39.36405574	     -1.99562808	      0.42492517	    -21.81032900	    815.77918457	     -1.14630239	      3.74873516	    -45.00000000	     45.00000000	    -45.00000000	     -4.65627006	   2431.58211412	    423.80317207	     29.81224589	     69.56947538	   1451.65887626	     29.70746161	     18.10141439	     10.42296591	     15.70706501	     42.86587970	    -45.00000000	    -41.62028365	    -22.73968057	    798.26832249	  -2981.36417847	    135.99519550	    177.86823521	      6.74140873	     10.27158229	     14.30452128	    -18.85849557
      9.71000000	    -39.19373411	     -2.18569230	      0.56499543	    -18.75698050	    813.58116565	     -0.67785760	      3.78744644	    -45.00000000	     45.00000000	    -45.00000000	     -4.74172418	   2431.96037024	    423.57784087	     29.59275251	     70.11808406	   1451.14903151	     26.25826279	     17.86490099	     10.82939848	     15.54112513	     42.53596596	    -45.00000000	    -41.05151209	    -22.41832742	    798.18229092	  -2981.54228827	    136.04065514	    177.68818884	      6.55587771	     10.92162482	     14.21133961	    -18.76858378
      9.72000000	    -39.11314080	     -2.47708495	      0.86201712	    -15.97564697	    811.70755017	     -0.23738819	      4.10438003	    -45.00000000	     45.00000000	    -45.00000000	     -5.29345901	   2432.24484845	    423.33888986	     29.57172265	     70.71293041	   1450.81020009	     24.02157605	     17.69922067	     11.13096512	     15.28246445	     42.02430960	    -45.00000000	    -40.65574281	    -22.64433330	    798.28306803	  -2981.57072067	    135.73019335	    177.26190385	      6.35055020	     11.51672054	     14.12466679	    -18.67621131
      9.73000000	    -38.93774685	     -2.72711319	      1.07036501	    -13.47907841	    810.13753604	      0.16230251	      4.14077695	    -45.00000000	     45.00000000	    -45.00000000	     -5.63111684	   2432.57513553	    423.21217206	     29.51461451	     71.32270871	   1450.43493021	     22.36111044	     17.46936911	     11.28609578	     14.99867438	     41.59608674	    -45.00000000	    -40.14320276	    -22.47072600	    798.17585574	  -2981.66870497	    135.78151461	    177.05447274	      6.04428930	     12.08412067	     14.13791889	    -18.53854924
      9.74000000	    -38.81339830	     -2.46640709	      0.71785360	    -11.27761902	    808.84741638	      0.50882234	      3.69913138	    -45.00000000	     45.00000000	    -45.00000000	     -4.82497915	   2432.84374001	    422.98553676	     29.18276697	     71.88469148	   1450.12333256	     20.54513301	     17.24700557	     11.40377895	     14.89322186	     41.76841230	    -45.00000000	    -39.74136301	    -21.45487533	    797.89961933	  -2981.95613613	    136.11490396	    177.08376775	      5.93689696	     12.75280282	     14.02060771	    -18.51065327
      9.75000000	    -38.66337239	     -2.91612205	      1.22407782	     -9.38166032	    807.81240611	      0.79264885	      4.07883902	    -45.00000000	     45.00000000	    -45.00000000	     -5.53963754	   2432.78925598	    422.76752046	     29.31332348	     72.53335574	   1449.88643196	     19.70555039	     17.03566632	     11.30966872	     14.64718275	     40.98085004	    -45.00000000	    -39.22450222	    -21.87209572	    798.05277462	  -2981.86403927	    135.93096331	    176.68015654	      5.73841268	     13.26680428	     14.04800836	    -18.38897822
      9.76000000	    -38.58634332	     -2.86208255	      1.10055483	     -7.79307805	    807.00052315	      1.01020305	      3.96559059	    -45.00000000	     45.00000000	    -45.00000000	     -5.41442405	   2433.05012546	    422.71405256	     29.18662980	     72.84251729	   1449.72695486	     19.09804854	     16.91241320	     11.38245535	     14.65335050	     40.84473053	    -45.00000000	    -38.99012084	    -21.47377903	    797.85566781	  -2981.99504555	    136.09544310	    176.60474664	      5.63284743	     13.70766257	     13.95600601	    -18.33592604
      9.77000000	    -38.49717322	     -2.92061795	      1.01335645	     -6.52630546	    806.38540955	      1.16230035	      3.89411076	    -45.00000000	     45.00000000	    -45.00000000	     -5.34760338	   2433.30815781	    422.68700220	     29.09842461	     73.07471032	   1449.64767417	     18.73743352	     16.84867358	     11.44333302	     14.59373322	     40.64702512	    -45.00000000	    -38.78094759	    -21.24026314	    797.73407392	  -2982.12594824	    136.21843623	    176.54937317	      5.42511970	     14.13061233	     13.84636693	    -18.27510839
